<?xml version="1.0" encoding="utf-8"?>
<!-- Svg Vector Icons : http://www.onlinewebfonts.com/icon -->
<!DOCTYPE svg PUBLIC "-//W3C//DTD SVG 1.1//EN" "http://www.w3.org/Graphics/SVG/1.1/DTD/svg11.dtd">
<svg version="1.1" xmlns="http://www.w3.org/2000/svg" xmlns:xlink="http://www.w3.org/1999/xlink" x="0px" y="0px" viewBox="0 0 256 256" enable-background="new 0 0 256 256" xml:space="preserve">
<metadata> Svg Vector Icons : http://www.onlinewebfonts.com/icon </metadata>
<g><g><g><path fill="#000000" d="M200.4,68.8c0-14.7-11.9-26.6-26.6-26.6c-14.7,0-26.6,11.9-26.6,26.6c0,7,2.7,13.2,7.1,18c-3.3,14.1-11.5,16.8-29.3,21.3c-9,2.3-19.3,4.9-28.8,10.5V59.2c7.5-4.7,12.6-13,12.6-22.5c0-14.7-11.9-26.6-26.6-26.6c-14.7,0-26.6,11.9-26.6,26.6c0,9.5,5.1,17.8,12.6,22.5v137.7c-7.5,4.7-12.6,13-12.6,22.5c0,14.7,11.9,26.6,26.6,26.6c14.7,0,26.6-11.9,26.6-26.6c0-9.5-5.1-17.8-12.6-22.5v-27c3.5-26.4,16.3-29.7,35.6-34.6c17.7-4.5,41.8-10.6,49.5-41.1C192.3,91,200.4,80.9,200.4,68.8z M82.2,24c6.9,0,12.6,5.7,12.6,12.6c0,6.9-5.7,12.6-12.6,12.6s-12.6-5.7-12.6-12.6C69.7,29.7,75.3,24,82.2,24z M82.2,232c-6.9,0-12.6-5.7-12.6-12.6c0-6.9,5.7-12.6,12.6-12.6s12.6,5.7,12.6,12.6C94.8,226.3,89.2,232,82.2,232z M173.8,81.4c-6.9,0-12.6-5.7-12.6-12.6c0-6.9,5.7-12.6,12.6-12.6s12.6,5.7,12.6,12.6C186.4,75.8,180.7,81.4,173.8,81.4z"/></g><g></g><g></g><g></g><g></g><g></g><g></g><g></g><g></g><g></g><g></g><g></g><g></g><g></g><g></g><g></g></g></g>
</svg>